<mxfile host="app.diagrams.net" modified="2023-09-06T12:30:26.825Z" agent="Mozilla/5.0 (X11; Linux x86_64) AppleWebKit/537.36 (KHTML, like Gecko) Chrome/116.0.0.0 Safari/537.36" etag="VIHndUDOOOoOHua92OG-" version="21.7.2" type="github">
  <diagram name="Page-1" id="zlk5ezC4eo5p-WXBBtBM">
    <mxGraphModel dx="548" dy="311" grid="1" gridSize="10" guides="1" tooltips="1" connect="1" arrows="1" fold="1" page="1" pageScale="1" pageWidth="850" pageHeight="1100" math="0" shadow="0">
      <root>
        <mxCell id="0" />
        <mxCell id="1" parent="0" />
        <mxCell id="WpRCeQGnWYd4xtdXqtZH-2" value="" style="rounded=0;whiteSpace=wrap;html=1;" vertex="1" parent="1">
          <mxGeometry x="400" y="200" width="280" height="210" as="geometry" />
        </mxCell>
        <mxCell id="FQmfqQlBrgT3XAdnYloM-1" value="Sensor 1" style="rounded=0;whiteSpace=wrap;html=1;" parent="1" vertex="1">
          <mxGeometry x="80" y="200" width="80" height="40" as="geometry" />
        </mxCell>
        <mxCell id="FQmfqQlBrgT3XAdnYloM-2" value="Sensor 2" style="rounded=0;whiteSpace=wrap;html=1;" parent="1" vertex="1">
          <mxGeometry x="80" y="280" width="80" height="40" as="geometry" />
        </mxCell>
        <mxCell id="FQmfqQlBrgT3XAdnYloM-4" value="Sensor n" style="rounded=0;whiteSpace=wrap;html=1;" parent="1" vertex="1">
          <mxGeometry x="80" y="360" width="80" height="40" as="geometry" />
        </mxCell>
        <mxCell id="FQmfqQlBrgT3XAdnYloM-5" value="MCU" style="rounded=0;whiteSpace=wrap;html=1;" parent="1" vertex="1">
          <mxGeometry x="240" y="270" width="70" height="60" as="geometry" />
        </mxCell>
        <mxCell id="FQmfqQlBrgT3XAdnYloM-8" value="" style="shape=flexArrow;endArrow=classic;html=1;rounded=0;exitX=1;exitY=0.5;exitDx=0;exitDy=0;" parent="1" source="FQmfqQlBrgT3XAdnYloM-2" target="FQmfqQlBrgT3XAdnYloM-5" edge="1">
          <mxGeometry width="50" height="50" relative="1" as="geometry">
            <mxPoint x="290" y="390" as="sourcePoint" />
            <mxPoint x="340" y="340" as="targetPoint" />
          </mxGeometry>
        </mxCell>
        <mxCell id="FQmfqQlBrgT3XAdnYloM-9" value="" style="shape=flexArrow;endArrow=classic;html=1;rounded=0;exitX=1;exitY=0.5;exitDx=0;exitDy=0;entryX=0.425;entryY=1.01;entryDx=0;entryDy=0;entryPerimeter=0;" parent="1" source="FQmfqQlBrgT3XAdnYloM-4" target="FQmfqQlBrgT3XAdnYloM-5" edge="1">
          <mxGeometry width="50" height="50" relative="1" as="geometry">
            <mxPoint x="290" y="390" as="sourcePoint" />
            <mxPoint x="340" y="340" as="targetPoint" />
            <Array as="points">
              <mxPoint x="270" y="380" />
            </Array>
          </mxGeometry>
        </mxCell>
        <mxCell id="FQmfqQlBrgT3XAdnYloM-10" value="" style="shape=flexArrow;endArrow=classic;html=1;rounded=0;exitX=1;exitY=0.5;exitDx=0;exitDy=0;entryX=0.435;entryY=-0.005;entryDx=0;entryDy=0;entryPerimeter=0;" parent="1" source="FQmfqQlBrgT3XAdnYloM-1" target="FQmfqQlBrgT3XAdnYloM-5" edge="1">
          <mxGeometry width="50" height="50" relative="1" as="geometry">
            <mxPoint x="290" y="390" as="sourcePoint" />
            <mxPoint x="270" y="260" as="targetPoint" />
            <Array as="points">
              <mxPoint x="270" y="220" />
            </Array>
          </mxGeometry>
        </mxCell>
        <mxCell id="FQmfqQlBrgT3XAdnYloM-11" value="Analog" style="text;html=1;strokeColor=none;fillColor=none;align=center;verticalAlign=middle;whiteSpace=wrap;rounded=0;" parent="1" vertex="1">
          <mxGeometry x="190" y="190" width="60" height="30" as="geometry" />
        </mxCell>
        <mxCell id="FQmfqQlBrgT3XAdnYloM-12" value="Digital" style="text;html=1;strokeColor=none;fillColor=none;align=center;verticalAlign=middle;whiteSpace=wrap;rounded=0;" parent="1" vertex="1">
          <mxGeometry x="160" y="270" width="60" height="30" as="geometry" />
        </mxCell>
        <mxCell id="FQmfqQlBrgT3XAdnYloM-13" value="..." style="text;html=1;strokeColor=none;fillColor=none;align=center;verticalAlign=middle;whiteSpace=wrap;rounded=0;" parent="1" vertex="1">
          <mxGeometry x="170" y="350" width="60" height="30" as="geometry" />
        </mxCell>
        <mxCell id="FQmfqQlBrgT3XAdnYloM-23" value="" style="shape=flexArrow;endArrow=classic;html=1;rounded=0;exitX=1;exitY=0.5;exitDx=0;exitDy=0;" parent="1" source="FQmfqQlBrgT3XAdnYloM-5" edge="1">
          <mxGeometry width="50" height="50" relative="1" as="geometry">
            <mxPoint x="460" y="330" as="sourcePoint" />
            <mxPoint x="400" y="300" as="targetPoint" />
          </mxGeometry>
        </mxCell>
        <mxCell id="FQmfqQlBrgT3XAdnYloM-24" value="OPC-UA-FX" style="text;html=1;strokeColor=none;fillColor=none;align=center;verticalAlign=middle;whiteSpace=wrap;rounded=0;" parent="1" vertex="1">
          <mxGeometry x="310" y="310" width="80" height="30" as="geometry" />
        </mxCell>
        <mxCell id="WpRCeQGnWYd4xtdXqtZH-3" value="" style="group" vertex="1" connectable="0" parent="1">
          <mxGeometry x="500" y="210" width="170" height="190" as="geometry" />
        </mxCell>
        <mxCell id="FQmfqQlBrgT3XAdnYloM-21" value="" style="rounded=0;whiteSpace=wrap;html=1;" parent="WpRCeQGnWYd4xtdXqtZH-3" vertex="1">
          <mxGeometry width="170" height="185" as="geometry" />
        </mxCell>
        <mxCell id="FQmfqQlBrgT3XAdnYloM-15" value="Base" style="rounded=0;whiteSpace=wrap;html=1;" parent="WpRCeQGnWYd4xtdXqtZH-3" vertex="1">
          <mxGeometry x="20" y="100" width="130" height="50" as="geometry" />
        </mxCell>
        <mxCell id="FQmfqQlBrgT3XAdnYloM-16" value="Arm 1" style="rounded=0;whiteSpace=wrap;html=1;" parent="WpRCeQGnWYd4xtdXqtZH-3" vertex="1">
          <mxGeometry x="20" y="60" width="60" height="30" as="geometry" />
        </mxCell>
        <mxCell id="FQmfqQlBrgT3XAdnYloM-19" value="Arm 2" style="rounded=0;whiteSpace=wrap;html=1;" parent="WpRCeQGnWYd4xtdXqtZH-3" vertex="1">
          <mxGeometry x="90" y="60" width="60" height="30" as="geometry" />
        </mxCell>
        <mxCell id="FQmfqQlBrgT3XAdnYloM-20" value="Akkustand" style="rounded=0;whiteSpace=wrap;html=1;" parent="WpRCeQGnWYd4xtdXqtZH-3" vertex="1">
          <mxGeometry x="50" y="20" width="70" height="30" as="geometry" />
        </mxCell>
        <mxCell id="WpRCeQGnWYd4xtdXqtZH-1" value="Digitaler Zwilling" style="text;html=1;strokeColor=none;fillColor=none;align=center;verticalAlign=middle;whiteSpace=wrap;rounded=0;" vertex="1" parent="WpRCeQGnWYd4xtdXqtZH-3">
          <mxGeometry x="35" y="160" width="100" height="30" as="geometry" />
        </mxCell>
        <mxCell id="WpRCeQGnWYd4xtdXqtZH-5" value="Server" style="text;html=1;strokeColor=none;fillColor=none;align=center;verticalAlign=middle;whiteSpace=wrap;rounded=0;" vertex="1" parent="1">
          <mxGeometry x="400" y="285" width="60" height="30" as="geometry" />
        </mxCell>
        <mxCell id="WpRCeQGnWYd4xtdXqtZH-7" value="" style="shape=flexArrow;endArrow=classic;html=1;rounded=0;" edge="1" parent="1">
          <mxGeometry width="50" height="50" relative="1" as="geometry">
            <mxPoint x="451" y="300" as="sourcePoint" />
            <mxPoint x="500" y="300" as="targetPoint" />
          </mxGeometry>
        </mxCell>
      </root>
    </mxGraphModel>
  </diagram>
</mxfile>
